<svg id="f9286752-66a7-4f37-a79c-564bb99a46ab" data-name="Layer 1" xmlns="http://www.w3.org/2000/svg" viewBox="0 0 619.19 600">
  <title>ectofactory</title>
  <g>
    <path d="M327.93,287.85a2.19,2.19,0,0,1,.68,1.59,2.33,2.33,0,0,1-2.34,2.34H311.33v19.95h11.24a2.15,2.15,0,0,1,1.63.68,2.32,2.32,0,0,1,.65,1.66,2.24,2.24,0,0,1-.65,1.59,2.15,2.15,0,0,1-1.63.68H311.33v16.89a2.33,2.33,0,0,1-2.27,2.27,2.25,2.25,0,0,1-1.66-.68,2.18,2.18,0,0,1-.68-1.59V289.44a2.19,2.19,0,0,1,.68-1.59,2.25,2.25,0,0,1,1.66-.68h17.22A2.25,2.25,0,0,1,327.93,287.85Z"/>
    <path d="M369.35,333.49a2,2,0,0,1-.33,1.66,2.23,2.23,0,0,1-1.36.94h-0.39a2.1,2.1,0,0,1-1.33-.49,1.93,1.93,0,0,1-.75-1.2L363.44,326H352.91l-1.69,8.45a2,2,0,0,1-.75,1.2,2.19,2.19,0,0,1-1.4.49h-0.39a2.18,2.18,0,0,1-1.62-2.6l9-44.9a0.8,0.8,0,0,1,.13-0.32v-0.13a1,1,0,0,1,.32-0.45v-0.13h0.07v-0.07h0.07v-0.07h0.07v-0.07h0.07a1,1,0,0,1,.26-0.19l0.32-.13V287h0.07a0.65,0.65,0,0,1,.29-0.07,0.65,0.65,0,0,0,.29-0.07h0.26a0.65,0.65,0,0,0,.29.07,0.66,0.66,0,0,1,.29.07H359V287a2.07,2.07,0,0,1,.39.13,1.06,1.06,0,0,1,.26.19h0.07v0.07h0.07v0.07h0.07v0.07l0.07,0.13a0.84,0.84,0,0,0,.16.23,0.89,0.89,0,0,1,.16.23v0.13a0.51,0.51,0,0,1,.07.32Zm-6.76-11.76-4.48-22-4.35,22h8.84Z"/>
    <path d="M400.79,335.63a9.77,9.77,0,0,1-7.67-3.12,8.15,8.15,0,0,1-1.75-2.66,15.91,15.91,0,0,1-1-3.44,12.49,12.49,0,0,1-.2-2V298.21a13.18,13.18,0,0,1,.94-5.2,10.84,10.84,0,0,1,2.44-3.64,9.56,9.56,0,0,1,3.38-2.11,11,11,0,0,1,3.77-.68,15.86,15.86,0,0,1,3.22.45,8.76,8.76,0,0,1,3.93,2.14,11.19,11.19,0,0,1,3.7,9,2.34,2.34,0,1,1-4.68,0,8.13,8.13,0,0,0-.75-3.8,5.54,5.54,0,0,0-1.79-2.08,5.75,5.75,0,0,0-2-.88,9,9,0,0,0-1.59-.19,5.78,5.78,0,0,0-2.11.39,4.9,4.9,0,0,0-1.72,1.1,7,7,0,0,0-2,5.46v26a10.26,10.26,0,0,0,.13,1.49,10,10,0,0,0,.49,1.88,5.15,5.15,0,0,0,1.07,1.79,5.84,5.84,0,0,0,9.65-1.75,10,10,0,0,0,.52-1.75,10.89,10.89,0,0,0,.16-2,2.19,2.19,0,0,1,.58-1.69,2.33,2.33,0,0,1,1.62-.78,2.4,2.4,0,0,1,2.47,2.14v1a11.42,11.42,0,0,1-.26,2.14,10.55,10.55,0,0,1-2.73,5.85A10.18,10.18,0,0,1,400.79,335.63Z"/>
    <path d="M456.31,287.85a2.26,2.26,0,0,1,.68,1.66,2.33,2.33,0,0,1-2.27,2.27h-7.86v41.45a2.22,2.22,0,0,1-2.27,2.27,2.24,2.24,0,0,1-1.59-.65,2.15,2.15,0,0,1-.68-1.63V291.78h-8a2.26,2.26,0,0,1-1.66-.68,2.18,2.18,0,0,1-.68-1.59,2.33,2.33,0,0,1,2.34-2.34h20.4A2.18,2.18,0,0,1,456.31,287.85Z"/>
    <path d="M486,336.28a9.84,9.84,0,0,1-7.73-3.12,11.43,11.43,0,0,1-2.73-6.17,12.49,12.49,0,0,1-.2-2,7,7,0,0,1,.07-1.17v-25.4a13.19,13.19,0,0,1,.94-5.2,11.2,11.2,0,0,1,2.44-3.67,9.32,9.32,0,0,1,3.38-2.14,11.19,11.19,0,0,1,3.83-.68,15.43,15.43,0,0,1,3.18.46,9.2,9.2,0,0,1,4,2.14,13.42,13.42,0,0,1,1.3,1.36,8.58,8.58,0,0,1,1.17,1.92,14.92,14.92,0,0,1,.88,2.57,13.48,13.48,0,0,1,.36,3.25v26.93a11.19,11.19,0,0,1-.19,1.92,11.61,11.61,0,0,1-2.79,5.91A10.26,10.26,0,0,1,486,336.28Zm-6-12.21v0.71a11.25,11.25,0,0,0,.13,1.56,10.61,10.61,0,0,0,.49,1.95,4.7,4.7,0,0,0,1.14,1.82,5.53,5.53,0,0,0,4.29,1.56,5.92,5.92,0,0,0,4.48-1.62,5.83,5.83,0,0,0,1.1-1.72,9.27,9.27,0,0,0,.55-1.79,7.77,7.77,0,0,0,.16-1.43v-26.7a8,8,0,0,0-.78-3.87,6.13,6.13,0,0,0-1.82-2.11,5.46,5.46,0,0,0-2.11-.91,9.83,9.83,0,0,0-1.59-.19,5.72,5.72,0,0,0-4,1.49,7.29,7.29,0,0,0-2,5.59v25.66Z"/>
    <path d="M542.24,332.32a2.33,2.33,0,0,1,.06,1.79,2,2,0,0,1-1.23,1.2,1.67,1.67,0,0,1-.49.16l-0.42,0a2.46,2.46,0,0,1-1.27-.32,2.21,2.21,0,0,1-.88-1l-7.8-17.87h-6.76v17a2.15,2.15,0,0,1-.68,1.63,2.32,2.32,0,0,1-1.66.65,2.24,2.24,0,0,1-1.59-.65,2.15,2.15,0,0,1-.68-1.63V289.51a2.26,2.26,0,0,1,.68-1.66,2.18,2.18,0,0,1,1.59-.68h9.68a7.15,7.15,0,0,1,4,1.27,12.19,12.19,0,0,1,3.41,3.54,17.76,17.76,0,0,1,2,4.61,18.83,18.83,0,0,1,.71,5.13,19.06,19.06,0,0,1-.71,5.2,17.73,17.73,0,0,1-2,4.61,11,11,0,0,1-3.51,3.57Zm-18.78-20.6h7.34a3,3,0,0,0,1.79-.71,7.3,7.3,0,0,0,1.72-1.95,12.55,12.55,0,0,0,1.53-3.41,14.13,14.13,0,0,0,.55-3.93,13.92,13.92,0,0,0-.55-3.87,12.58,12.58,0,0,0-1.53-3.41,6.58,6.58,0,0,0-1.72-2,3.09,3.09,0,0,0-1.79-.68h-7.34v19.95Z"/>
    <path d="M582.39,287.43a2.06,2.06,0,0,1,1.27,1.17,2.34,2.34,0,0,1,0,1.75l-8.25,20.79v22.09a2.22,2.22,0,0,1-2.27,2.27,2.24,2.24,0,0,1-1.59-.65,2.15,2.15,0,0,1-.68-1.63V311.14l-8.25-20.79a2.33,2.33,0,0,1,0-1.75,2.06,2.06,0,0,1,1.27-1.17,2.24,2.24,0,0,1,1.79,0,2.05,2.05,0,0,1,1.2,1.27l6.24,15.85,6.24-15.85a2.05,2.05,0,0,1,1.2-1.27A2.24,2.24,0,0,1,582.39,287.43Z"/>
  </g>
  <g>
    <path d="M335.23,262.12a2.94,2.94,0,0,1,.89,2.16,2.84,2.84,0,0,1-.89,2.08,3,3,0,0,1-2.16.89H310.58a3,3,0,0,1-2.16-.89,2.85,2.85,0,0,1-.89-2.08V207.1a2.85,2.85,0,0,1,.89-2.08,3,3,0,0,1,2.16-.89h22.48a3,3,0,0,1,2.16.89,2.85,2.85,0,0,1,.89,2.08,3,3,0,0,1-3.05,3.05H313.55v26h14.68a2.81,2.81,0,0,1,2.12.89,3,3,0,0,1,.85,2.16,2.92,2.92,0,0,1-.85,2.08,2.81,2.81,0,0,1-2.12.89H313.55v19h19.51A3,3,0,0,1,335.23,262.12Z"/>
    <path d="M387.53,267.42q-6.36,0-10-4.07a10.6,10.6,0,0,1-2.29-3.48,20.79,20.79,0,0,1-1.27-4.5,16.26,16.26,0,0,1-.25-2.63V218.55a17.21,17.21,0,0,1,1.23-6.79,14.14,14.14,0,0,1,3.18-4.75,12.49,12.49,0,0,1,4.41-2.76,14.37,14.37,0,0,1,4.92-.89,20.65,20.65,0,0,1,4.2.59,11.44,11.44,0,0,1,5.13,2.8,14.61,14.61,0,0,1,4.84,11.79,3.05,3.05,0,1,1-6.11,0,10.61,10.61,0,0,0-1-5,7.23,7.23,0,0,0-2.33-2.71,7.49,7.49,0,0,0-2.67-1.15,11.64,11.64,0,0,0-2.08-.25,7.56,7.56,0,0,0-2.76.51,6.4,6.4,0,0,0-2.25,1.44q-2.63,2.38-2.63,7.13v34a13.53,13.53,0,0,0,.17,2,13.13,13.13,0,0,0,.64,2.46,6.71,6.71,0,0,0,1.4,2.33,7.11,7.11,0,0,0,5.51,2q3.82,0,5.68-2.12a7.09,7.09,0,0,0,1.4-2.21,13.12,13.12,0,0,0,.68-2.29,14.25,14.25,0,0,0,.21-2.63,2.87,2.87,0,0,1,.76-2.21,3,3,0,0,1,2.12-1,3.13,3.13,0,0,1,3.22,2.8v1.27a15,15,0,0,1-.34,2.8,13.76,13.76,0,0,1-3.56,7.64A13.29,13.29,0,0,1,387.53,267.42Z"/>
    <path d="M468.5,205a2.94,2.94,0,0,1,.89,2.16,3,3,0,0,1-3,3H456.16v54.12a2.9,2.9,0,0,1-3,3,2.92,2.92,0,0,1-2.08-.85,2.8,2.8,0,0,1-.89-2.12V210.15H439.79a3,3,0,0,1-2.16-.89,2.85,2.85,0,0,1-.89-2.08,3,3,0,0,1,3.05-3.05h26.64A2.85,2.85,0,0,1,468.5,205Z"/>
    <path d="M515.8,268.27q-6.45,0-10.1-4.07a14.93,14.93,0,0,1-3.56-8.06,16.37,16.37,0,0,1-.25-2.63A9,9,0,0,1,502,252V218.81A17.19,17.19,0,0,1,503.2,212a14.61,14.61,0,0,1,3.18-4.79,12.18,12.18,0,0,1,4.41-2.8,14.59,14.59,0,0,1,5-.89,20.14,20.14,0,0,1,4.16.59,12,12,0,0,1,5.17,2.8,17.29,17.29,0,0,1,1.7,1.78,11.14,11.14,0,0,1,1.53,2.5,19.48,19.48,0,0,1,1.14,3.35,17.6,17.6,0,0,1,.47,4.24V254a14.71,14.71,0,0,1-.25,2.5,15.15,15.15,0,0,1-3.65,7.72A13.4,13.4,0,0,1,515.8,268.27Zm-7.89-15.95v0.93a14.57,14.57,0,0,0,.17,2,13.76,13.76,0,0,0,.64,2.55,6.11,6.11,0,0,0,1.48,2.37,7.22,7.22,0,0,0,5.6,2,7.73,7.73,0,0,0,5.85-2.12,7.63,7.63,0,0,0,1.44-2.25,12.13,12.13,0,0,0,.72-2.33,10.28,10.28,0,0,0,.21-1.87V218.81a10.42,10.42,0,0,0-1-5,8,8,0,0,0-2.38-2.76,7.13,7.13,0,0,0-2.76-1.19,12.92,12.92,0,0,0-2.08-.25,7.48,7.48,0,0,0-5.26,2q-2.63,2.46-2.63,7.3v33.51Z"/>
  </g>
  <g>
    <path d="M309.47,559.29c-0.37-.94-37.08-97.2-37.08-289v-9.78H230.45c-4.15-64.71-6.9-139.84-6.9-225.52V25.2H116.84V35c0,54.33-1.1,104.42-3,150.3H72.44v9.78c0,126.34-12.59,218.66-23.16,273.86-11.44,59.8-23,90.11-23.15,90.41L21,572.63H314.71Z" style="fill: #fff"/>
    <path d="M70.9,560.34c0.38-1.44,32-123,42.54-365.29H82.22c0,246.91-47,367.81-47,367.81h35Z"/>
    <path d="M269.49,560.34l0.67,2.52h30.21s-37.76-96.18-37.76-292.59H231.1C244.05,462.36,269.15,559.06,269.49,560.34Z"/>
    <path d="M260,562.86H80.34S126.61,389.34,126.61,35h87.16C213.77,389.34,260,562.86,260,562.86Z"/>
    <rect x="117.93" y="54.53" width="104.53" height="4.89" style="fill: #fff"/>
    <path d="M174,143.6c1.95,30.15,9.26,31.12,17.54,41.35s22.66,29.24,6.58,48.73-48.24,17.54-58.23-11.21S164,144.88,174,143.6Z" style="fill: #fff"/>
    <path d="M85.58,305.6l1.93,33.13L102.7,351h135l15.18-12.25,1.93-33.13H85.58Zm164,4.89-1.36,23.36H92.12l-1.36-23.36H249.62Z" style="fill: #fff"/>
  </g>
</svg>
