<svg id="bb9c3250-77ed-4612-8472-b375dd9f3bb4" data-name="Layer 1" xmlns="http://www.w3.org/2000/svg" viewBox="0 0 348.38 600">
  <title>ectofactory</title>
  <g>
    <path d="M315.67,559.29c-0.38-.94-37.87-97.2-37.87-289v-9.78H235c-4.24-64.71-7.05-139.84-7.05-225.52V25.2h-109V35c0,54.33-1.13,104.42-3,150.3H73.57v9.78c0,126.34-12.86,218.66-23.65,273.86C38.23,528.71,26.39,559,26.28,559.32L21,572.63H321Z" style="fill: #fff"/>
    <path d="M72,560.34c0.39-1.44,32.68-123,43.45-365.29H83.56c0,246.91-48,367.81-48,367.81H71.3Z"/>
    <path d="M274.84,560.34l0.68,2.52h30.85s-38.56-96.18-38.56-292.59H235.63C248.85,462.36,274.49,559.06,274.84,560.34Z"/>
    <path d="M265.19,562.86H81.64S128.9,389.34,128.9,35h89C217.93,389.34,265.19,562.86,265.19,562.86Z"/>
    <rect x="120.03" y="54.53" width="106.77" height="4.89" style="fill: #fff"/>
    <path d="M177.28,143.6c2,30.15,9.46,31.12,17.92,41.35s23.14,29.24,6.72,48.73-49.27,17.54-59.47-11.21S167.08,144.88,177.28,143.6Z" style="fill: #fff"/>
    <path d="M87,305.6l2,33.13L104.48,351H242.36l15.51-12.25,2-33.13H87Zm167.56,4.89-1.38,23.36H93.67l-1.39-23.36H254.54Z" style="fill: #fff"/>
  </g>
</svg>
