<svg id="fdfb8345-4fe8-4ae9-92ae-3a1565475e66" data-name="Layer 1" xmlns="http://www.w3.org/2000/svg" xmlns:xlink="http://www.w3.org/1999/xlink" viewBox="0 0 348.38 600">
  <defs>
    <linearGradient id="3a536dcf-a02f-4b20-a5e7-2964973ae081" x1="35.59" y1="379.5" x2="115.44" y2="379.5" gradientUnits="userSpaceOnUse">
      <stop offset="0" stop-color="#949494"/>
      <stop offset="0" stop-color="#6d557c"/>
      <stop offset="1" stop-color="#b2a3bc"/>
    </linearGradient>
    <linearGradient id="dfaa53b2-f1c9-4922-b11a-d9ee137306a2" x1="235.63" y1="417.11" x2="306.37" y2="417.11" xlink:href="#3a536dcf-a02f-4b20-a5e7-2964973ae081"/>
    <linearGradient id="8388987c-748e-461b-a333-975609004e2a" x1="81.64" y1="299.47" x2="265.19" y2="299.47" gradientUnits="userSpaceOnUse">
      <stop offset="0" stop-color="#949494"/>
      <stop offset="0" stop-color="#392047"/>
      <stop offset="1" stop-color="#846a96"/>
    </linearGradient>
  </defs>
  <title>ectofactory</title>
  <g>
    <path d="M315.67,559.83c-0.38-.94-37.87-97.2-37.87-289V261H235c-4.24-64.71-7.05-139.84-7.05-225.52V25.75h-109v9.78c0,54.33-1.13,104.42-3,150.3H73.57v9.78c0,126.34-12.86,218.66-23.65,273.86-11.69,59.8-23.53,90.11-23.64,90.41L21,573.17H321Z" style="fill: #fff"/>
    <path d="M72,560.89c0.39-1.44,32.68-123,43.45-365.29H83.56c0,246.91-48,367.81-48,367.81H71.3Z" style="fill: url(#3a536dcf-a02f-4b20-a5e7-2964973ae081)"/>
    <path d="M274.84,560.89l0.68,2.52h30.85s-38.56-96.18-38.56-292.59H235.63C248.85,462.9,274.49,559.61,274.84,560.89Z" style="fill: url(#dfaa53b2-f1c9-4922-b11a-d9ee137306a2)"/>
    <path d="M265.19,563.41H81.64S128.9,389.89,128.9,35.53h89C217.93,389.89,265.19,563.41,265.19,563.41Z" style="fill: url(#8388987c-748e-461b-a333-975609004e2a)"/>
    <rect x="120.03" y="55.07" width="106.77" height="4.89" style="fill: #fff"/>
    <path d="M177.28,144.15c2,30.15,9.46,31.12,17.92,41.35s23.14,29.24,6.72,48.73S152.64,251.77,142.44,223,167.08,145.43,177.28,144.15Z" style="fill: #fff"/>
    <path d="M87,306.15l2,33.13,15.52,12.26H242.36l15.51-12.25,2-33.13H87ZM254.54,311l-1.38,23.36H93.67L92.28,311H254.54Z" style="fill: #fff"/>
  </g>
</svg>
